<svg width="17" height="16" viewBox="0 0 17 16" fill="none" xmlns="http://www.w3.org/2000/svg">
<g clip-path="url(#clip0_61385_198)">
<path d="M8.23427 0.166534C3.68735 0.166534 0 3.76253 0 8.19853C0 11.7465 2.35941 14.7565 5.63294 15.8195C6.04471 15.8935 6.195 15.6455 6.195 15.4325C6.195 15.2415 6.18779 14.7365 6.18368 14.0665C3.89324 14.5515 3.40941 12.9895 3.40941 12.9895C3.03574 12.0615 2.49529 11.8145 2.49529 11.8145C1.74691 11.3165 2.55088 11.3265 2.55088 11.3265C3.3775 11.3835 3.81191 12.1545 3.81191 12.1545C4.54691 13.3815 5.74 13.0275 6.20941 12.8215C6.28353 12.3025 6.49662 11.9485 6.73235 11.7475C4.90412 11.5445 2.98118 10.8555 2.98118 7.77853C2.98118 6.90153 3.30235 6.18453 3.82941 5.62253C3.74397 5.41953 3.46191 4.60253 3.90971 3.49753C3.90971 3.49753 4.60147 3.28153 6.17441 4.32053C6.83118 4.14253 7.53529 4.05353 8.23632 4.05053C8.93529 4.05453 9.64044 4.14253 10.2982 4.32153C11.8701 3.28253 12.5609 3.49853 12.5609 3.49853C13.0097 4.60453 12.7276 5.42053 12.6432 5.62353C13.1713 6.18553 13.4894 6.90253 13.4894 7.77953C13.4894 10.8645 11.5644 11.5435 9.73 11.7425C10.0254 11.9905 10.289 12.4805 10.289 13.2295C10.289 14.3035 10.2787 15.1695 10.2787 15.4325C10.2787 15.6475 10.4269 15.8975 10.8449 15.8185C14.1132 14.7545 16.4706 11.7455 16.4706 8.19853C16.4706 3.76253 12.7832 0.166534 8.23427 0.166534Z" fill="#C4C4CC"/>
</g>
<defs>
<clipPath id="clip0_61385_198">
<rect width="16.4706" height="16" fill="white"/>
</clipPath>
</defs>
</svg>
